<?xml version="1.0" standalone="no"?>
   <!DOCTYPE svg PUBLIC "-//W3C//DTD SVG 1.1//EN" 
   "http://www.w3.org/Graphics/SVG/1.1/DTD/svg11.dtd"><svg id="svg" version="1.1" width="1035" height="1299" xmlns="http://www.w3.org/2000/svg"><path d="M922.500 111.576 C 917.550 113.282,908.775 118.357,903.000 122.853 C 897.225 127.349,884.006 134.831,873.625 139.480 C 850.159 149.987,840.905 160.517,838.656 179.264 C 834.289 215.664,822.005 246.069,800.853 272.828 C 794.334 281.076,789.000 289.101,789.000 290.663 C 789.000 293.701,766.150 322.261,740.475 351.316 C 731.840 361.087,716.566 380.871,706.531 395.280 C 686.543 423.983,684.757 424.999,653.144 425.645 C 643.599 425.840,632.799 427.830,629.144 430.066 C 625.490 432.302,614.400 435.794,604.500 437.824 C 559.248 447.107,511.207 481.952,420.557 571.242 C 366.397 624.591,361.960 628.260,352.575 627.451 C 344.907 626.791,342.111 627.924,340.738 632.251 C 339.749 635.367,334.748 641.015,329.625 644.803 C 320.590 651.483,312.669 653.159,244.500 662.817 C 217.278 666.674,208.677 669.316,213.465 672.351 C 215.684 673.757,220.875 674.949,225.000 675.000 C 230.950 675.073,231.570 675.693,228.000 678.000 C 225.525 679.599,220.865 680.929,217.645 680.954 C 209.373 681.019,152.934 708.919,141.340 718.674 C 127.169 730.598,110.433 757.187,99.905 784.500 C 91.850 805.397,84.000 834.345,84.000 843.148 C 84.000 849.840,89.140 845.019,96.063 831.834 C 100.153 824.043,106.554 814.256,110.286 810.084 C 114.019 805.913,121.444 796.090,126.786 788.256 C 143.825 763.270,146.071 771.088,130.930 802.682 C 121.072 823.252,108.000 873.557,108.000 890.923 C 108.000 899.149,88.488 979.166,85.174 984.527 C 84.334 985.887,85.413 986.927,87.573 986.838 C 89.733 986.749,97.325 978.512,104.444 968.533 C 111.564 958.553,117.780 950.864,118.258 951.444 C 119.967 953.522,111.587 1009.882,106.647 1029.527 C 103.877 1040.541,102.036 1054.716,102.556 1061.027 L 103.500 1072.500 117.840 1045.500 C 125.727 1030.650,134.806 1009.195,138.017 997.823 C 141.228 986.450,144.717 976.325,145.770 975.323 C 148.225 972.987,144.723 995.594,139.246 1017.433 C 134.833 1035.033,134.116 1071.900,137.884 1087.500 C 140.328 1097.621,140.259 1097.745,150.100 1065.681 C 153.783 1053.680,158.164 1043.016,159.836 1041.983 C 161.746 1040.803,162.180 1042.873,161.004 1047.558 C 152.817 1080.180,156.530 1120.323,172.332 1170.034 C 181.118 1197.675,182.136 1194.551,184.070 1134.000 C 185.025 1104.125,187.110 1085.332,190.727 1074.000 L 195.994 1057.500 199.767 1069.500 C 201.841 1076.100,203.643 1085.213,203.769 1089.750 C 204.046 1099.653,210.000 1100.972,210.000 1091.130 C 210.000 1071.907,232.730 1012.659,247.071 994.500 C 251.351 989.080,251.818 989.013,251.905 993.805 C 251.957 996.723,249.461 1008.873,246.358 1020.805 C 238.578 1050.723,236.726 1062.000,239.593 1062.000 C 240.937 1062.000,243.727 1058.288,245.792 1053.750 C 247.857 1049.213,255.483 1036.566,262.740 1025.647 C 269.996 1014.727,281.278 995.152,287.810 982.147 C 299.149 959.569,302.957 954.590,297.439 969.555 C 292.585 982.719,290.893 993.000,293.579 993.000 C 295.060 993.000,297.960 988.925,300.023 983.945 C 302.086 978.965,310.815 966.998,319.422 957.353 C 328.028 947.707,338.238 933.271,342.110 925.273 L 349.150 910.730 352.940 919.615 C 355.024 924.502,356.790 930.188,356.865 932.250 C 356.939 934.313,358.486 936.000,360.302 936.000 C 362.433 936.000,363.121 930.944,362.242 921.750 C 360.658 905.169,365.908 872.444,377.283 828.000 C 383.844 802.369,385.276 790.351,384.972 763.500 C 384.766 745.350,383.344 726.450,381.812 721.500 C 379.318 713.442,379.915 711.955,387.513 707.294 C 392.181 704.431,396.000 700.253,396.000 698.009 C 396.000 695.766,398.740 691.450,402.089 688.419 C 406.412 684.507,407.991 679.729,407.532 671.950 C 406.968 662.383,408.575 659.508,420.193 649.308 C 427.512 642.882,452.477 619.372,475.671 597.063 C 521.753 552.738,552.733 525.571,570.922 513.533 C 584.223 504.732,617.358 496.895,668.620 490.426 C 687.387 488.057,704.835 484.405,707.394 482.310 C 709.953 480.214,721.115 466.299,732.198 451.387 C 756.479 418.718,756.998 418.277,774.000 415.753 C 781.425 414.651,795.600 409.419,805.500 404.125 C 820.956 395.860,823.892 392.913,826.273 383.273 C 827.799 377.099,828.173 371.173,827.105 370.105 C 826.037 369.037,816.906 370.481,806.813 373.313 C 796.719 376.144,787.735 377.735,786.848 376.848 C 785.960 375.960,791.481 368.285,799.117 359.792 C 806.753 351.300,813.000 342.882,813.000 341.087 C 813.000 335.666,827.976 315.304,857.558 280.506 C 889.586 242.831,910.879 211.786,925.464 181.500 C 935.898 159.836,947.958 118.369,945.751 111.750 C 944.274 107.323,935.039 107.254,922.500 111.576 M903.401 153.134 C 873.350 182.666,860.959 192.000,851.805 192.000 C 850.262 192.000,849.000 186.835,849.000 180.523 C 849.000 171.755,850.947 167.340,857.250 161.818 C 861.788 157.842,863.813 156.527,861.750 158.895 C 855.592 165.965,857.388 171.000,866.069 171.000 C 871.945 171.000,878.058 166.757,888.569 155.385 C 896.506 146.796,903.000 138.745,903.000 137.493 C 903.000 133.643,925.038 120.000,931.256 120.000 C 935.392 120.000,927.187 129.760,903.401 153.134 M930.111 143.250 C 924.749 161.162,920.991 167.527,906.259 183.646 C 892.211 199.016,868.395 213.737,847.033 220.252 C 840.730 222.175,840.663 221.900,844.354 209.399 C 847.665 198.183,849.530 196.245,859.213 193.955 C 867.387 192.022,877.778 183.964,898.915 163.168 C 914.661 147.676,928.678 135.000,930.063 135.000 C 931.448 135.000,931.470 138.713,930.111 143.250 M883.446 156.055 C 877.031 162.625,869.121 168.000,865.868 168.000 C 860.303 168.000,860.375 167.552,867.083 160.412 C 871.004 156.238,876.077 153.539,878.357 154.414 C 880.808 155.354,881.966 154.471,881.191 152.252 C 880.470 150.188,882.717 146.923,886.185 144.995 C 896.791 139.101,895.700 143.506,883.446 156.055 M873.000 159.000 C 870.296 160.747,869.926 161.926,872.073 161.954 C 874.038 161.979,876.480 160.650,877.500 159.000 C 879.802 155.275,878.763 155.275,873.000 159.000 M909.164 188.694 C 898.406 208.796,837.000 244.715,837.000 230.906 C 837.000 229.204,839.363 226.982,842.250 225.969 C 863.998 218.334,891.750 203.030,900.281 193.967 C 911.942 181.579,913.451 180.683,909.164 188.694 M883.406 225.101 C 873.558 235.057,858.822 246.532,850.661 250.601 C 842.499 254.671,837.491 258.000,839.530 258.000 C 845.343 258.000,865.211 247.118,876.051 237.997 C 884.431 230.945,885.393 230.660,882.487 236.089 C 876.525 247.230,848.054 269.907,832.500 275.904 C 824.250 279.085,819.698 281.758,822.384 281.844 C 828.772 282.048,848.061 273.946,850.472 270.045 C 851.507 268.370,853.962 267.040,855.927 267.088 C 857.892 267.136,855.113 271.167,849.750 276.046 C 844.388 280.924,840.000 286.164,840.000 287.691 C 840.000 292.677,821.705 306.000,814.859 306.000 C 811.184 306.000,801.093 309.530,792.434 313.845 C 783.775 318.160,776.205 321.198,775.611 320.595 C 773.112 318.059,800.490 290.982,805.748 290.789 C 811.246 290.588,811.235 290.464,805.500 288.000 C 800.273 285.754,800.660 285.350,808.500 284.863 C 813.603 284.546,815.272 283.719,812.354 282.952 C 807.676 281.723,807.812 280.665,813.854 271.337 C 818.286 264.493,822.998 260.946,828.000 260.689 C 833.118 260.426,833.833 259.868,830.250 258.932 C 824.033 257.307,824.045 257.379,828.443 247.725 C 830.945 242.235,836.193 238.916,847.630 235.591 C 856.288 233.074,871.276 225.648,880.936 219.089 C 890.596 212.530,899.133 207.127,899.906 207.082 C 900.679 207.037,893.254 215.146,883.406 225.101 M823.500 288.000 C 815.197 290.113,815.081 290.314,822.000 290.599 C 826.125 290.769,831.525 289.599,834.000 288.000 C 839.106 284.700,836.467 284.700,823.500 288.000 M820.158 313.311 C 819.248 315.681,816.493 316.850,814.035 315.907 C 811.578 314.963,805.952 316.841,801.533 320.079 C 790.051 328.494,773.548 333.748,769.938 330.138 C 768.016 328.216,768.991 326.522,772.748 325.250 C 775.912 324.180,786.600 320.123,796.500 316.236 C 817.489 307.995,822.432 307.384,820.158 313.311 M814.234 324.750 C 805.344 340.479,797.297 347.591,786.289 349.451 C 772.887 351.715,753.364 363.266,735.195 379.681 C 728.401 385.819,722.303 390.303,721.645 389.645 C 720.440 388.440,738.940 362.820,753.143 346.022 C 758.018 340.256,764.685 336.349,771.551 335.235 C 777.471 334.274,788.207 330.728,795.408 327.354 C 810.534 320.266,817.298 319.331,814.234 324.750 M790.674 356.719 C 789.614 358.434,783.069 361.366,776.129 363.235 C 764.056 366.485,756.630 372.880,728.061 404.624 C 723.053 410.189,716.689 414.000,712.406 414.000 C 701.298 414.000,705.899 407.139,730.245 387.400 C 757.424 365.365,765.307 360.221,779.277 355.406 C 791.139 351.317,793.821 351.626,790.674 356.719 M780.000 368.633 C 780.000 370.081,778.124 372.822,775.832 374.724 C 773.540 376.627,771.025 381.529,770.243 385.618 C 769.104 391.578,769.621 392.389,772.851 389.709 C 775.928 387.155,779.009 388.157,785.898 393.954 L 794.916 401.542 785.756 403.554 C 779.124 405.010,774.997 404.118,770.799 400.318 C 764.581 394.691,762.589 398.389,768.600 404.400 C 771.400 407.200,770.379 408.000,764.006 408.000 C 752.133 408.000,750.143 399.648,759.998 391.171 C 769.518 382.982,770.432 379.487,761.851 384.080 C 753.326 388.642,748.552 399.946,752.313 406.665 C 754.687 410.908,753.426 413.555,746.082 419.742 C 738.996 425.713,732.340 427.910,717.187 429.278 L 697.500 431.056 717.000 431.619 C 733.309 432.090,735.526 432.747,730.546 435.635 C 727.271 437.533,713.730 439.949,700.455 441.004 C 669.822 443.437,652.222 451.881,630.147 474.736 C 620.991 484.215,612.460 491.978,611.189 491.986 C 606.079 492.017,621.333 468.457,633.954 456.823 C 646.600 445.167,652.664 442.456,682.502 435.122 C 690.358 433.191,695.539 429.817,697.502 425.353 C 699.151 421.603,703.200 418.137,706.500 417.651 C 722.753 415.255,726.840 412.754,738.278 398.201 C 753.979 378.222,780.000 359.782,780.000 368.633 M817.677 382.595 C 814.474 385.018,808.399 386.890,804.177 386.756 C 796.523 386.513,796.527 386.501,805.500 382.392 C 818.005 376.666,825.354 376.789,817.677 382.595 M810.738 392.382 C 804.533 396.981,788.460 396.018,786.797 390.947 C 785.987 388.479,790.264 387.563,800.803 387.947 C 813.977 388.427,815.285 389.011,810.738 392.382 M648.664 441.523 C 634.400 448.439,616.523 467.323,610.109 482.250 C 607.805 487.613,604.250 492.018,602.210 492.041 C 600.169 492.063,595.235 492.955,591.244 494.023 C 585.720 495.501,584.398 494.954,585.706 491.732 C 591.710 476.945,591.899 476.090,588.741 478.042 C 586.937 479.157,584.616 483.917,583.583 488.620 C 582.482 493.634,578.664 498.557,574.353 500.521 C 570.309 502.364,567.000 503.077,567.000 502.106 C 567.000 495.813,587.404 463.899,595.135 458.100 C 611.868 445.548,613.708 445.637,602.250 458.443 C 596.063 465.359,591.036 472.026,591.081 473.259 C 591.125 474.491,594.964 470.915,599.611 465.311 C 611.464 451.020,638.148 435.477,651.000 435.379 L 661.500 435.299 648.664 441.523 M726.278 445.166 C 724.376 447.457,715.098 450.293,705.660 451.469 C 681.757 454.448,660.819 463.031,648.212 475.019 C 638.261 484.483,624.000 491.153,624.000 486.344 C 624.000 481.797,650.255 459.250,662.943 452.899 C 671.027 448.853,685.380 445.307,698.943 444.005 C 711.349 442.814,723.353 441.650,725.617 441.420 C 728.796 441.096,728.947 441.950,726.278 445.166 M585.508 463.635 C 578.906 471.135,571.156 483.805,568.284 491.791 C 564.341 502.755,559.157 509.361,547.117 518.765 C 538.347 525.615,530.120 531.250,528.835 531.288 C 527.551 531.327,525.418 534.282,524.096 537.857 C 522.103 543.243,521.213 543.598,518.892 539.928 C 516.454 536.073,516.086 536.099,516.046 540.125 C 515.981 546.638,488.637 572.516,486.875 567.731 C 486.112 565.659,484.109 564.815,482.423 565.856 C 480.485 567.055,480.835 568.662,483.377 570.233 C 486.482 572.152,485.362 574.854,478.447 582.126 C 466.712 594.468,455.436 600.180,433.500 604.897 L 415.500 608.768 431.287 607.276 C 439.969 606.455,449.419 604.949,452.287 603.929 C 455.696 602.716,454.452 605.348,448.689 611.537 C 443.843 616.742,437.205 621.000,433.939 621.000 C 430.672 621.000,428.912 621.912,430.027 623.027 C 433.282 626.282,419.550 638.996,412.727 639.046 C 408.487 639.077,407.699 639.853,410.256 641.477 C 412.971 643.201,411.681 645.586,405.605 650.078 C 398.333 655.455,396.445 655.745,391.630 652.224 C 386.314 648.337,386.388 648.016,393.281 645.114 C 400.074 642.255,399.932 642.117,390.883 642.788 C 372.578 644.144,379.601 637.472,403.500 630.801 C 419.912 626.220,423.231 624.668,414.000 625.893 C 406.575 626.879,394.634 629.653,387.466 632.058 C 380.297 634.463,373.827 635.827,373.089 635.089 C 370.359 632.359,390.657 618.044,402.135 614.605 C 408.661 612.650,414.000 609.914,414.000 608.525 C 414.000 605.177,411.837 605.341,404.546 609.243 C 401.213 611.027,397.726 611.726,396.796 610.796 C 395.867 609.867,400.891 606.517,407.961 603.352 C 417.499 599.081,419.356 597.290,415.157 596.409 C 410.382 595.406,410.903 594.443,418.500 590.230 C 423.450 587.486,426.381 585.186,425.013 585.120 C 423.645 585.054,428.957 578.588,436.816 570.750 C 444.675 562.913,452.124 556.810,453.370 557.189 C 454.615 557.568,456.422 555.395,457.385 552.361 C 459.606 545.364,515.624 495.000,521.186 495.000 C 521.747 495.000,521.466 502.088,520.561 510.750 C 519.404 521.828,519.755 524.720,521.747 520.500 C 523.304 517.200,524.743 509.100,524.944 502.500 C 525.257 492.222,527.103 489.062,537.813 480.474 C 544.881 474.807,550.800 471.899,551.428 473.785 C 552.040 475.620,555.153 473.801,558.345 469.743 C 562.738 464.158,587.196 451.604,596.505 450.156 C 597.058 450.070,592.109 456.136,585.508 463.635 M718.500 456.000 C 717.480 457.650,713.982 459.000,710.727 459.000 C 702.599 459.000,683.860 467.118,676.541 473.809 C 670.572 479.266,648.000 483.847,648.000 479.602 C 648.000 473.271,674.228 460.532,696.000 456.289 C 714.914 452.602,720.645 452.529,718.500 456.000 M704.083 472.595 C 698.404 477.591,692.088 480.000,684.667 480.000 L 673.669 480.000 684.085 472.647 C 689.813 468.603,698.550 465.271,703.500 465.242 L 712.500 465.190 704.083 472.595 M547.500 489.000 C 546.361 494.186,546.054 499.054,546.819 499.819 C 547.583 500.583,549.071 496.896,550.125 491.625 C 551.179 486.354,551.486 481.486,550.806 480.806 C 550.127 480.127,548.639 483.814,547.500 489.000 M486.237 541.750 C 486.381 545.245,487.092 545.956,488.049 543.563 C 488.916 541.397,488.809 538.809,487.813 537.813 C 486.816 536.816,486.107 538.588,486.237 541.750 M469.693 557.121 C 468.065 561.396,468.409 561.741,471.372 558.800 C 473.423 556.765,474.344 554.344,473.421 553.421 C 472.497 552.497,470.819 554.162,469.693 557.121 M460.215 570.750 L 454.500 577.500 461.250 571.785 C 467.593 566.414,469.366 564.000,466.965 564.000 C 466.396 564.000,463.358 567.038,460.215 570.750 M470.382 579.836 C 465.917 583.212,453.092 588.442,441.882 591.458 C 430.301 594.574,426.682 596.224,433.500 595.279 C 452.051 592.706,465.814 588.044,473.675 581.669 C 483.426 573.760,480.541 572.155,470.382 579.836 M431.438 584.049 C 433.603 584.916,436.191 584.809,437.188 583.813 C 438.184 582.816,436.413 582.107,433.250 582.237 C 429.755 582.381,429.044 583.092,431.438 584.049 M365.453 643.500 C 370.355 647.625,375.415 651.000,376.697 651.000 C 381.873 651.000,390.000 661.364,390.000 667.965 C 390.000 677.036,387.645 676.819,375.750 666.652 C 370.017 661.752,365.857 655.266,365.652 650.909 C 365.413 645.824,364.874 645.147,363.932 648.750 C 362.102 655.753,359.332 655.369,351.496 647.027 C 339.809 634.588,351.385 631.662,365.453 643.500 M340.506 654.750 C 339.099 659.751,339.376 660.384,341.575 657.193 C 344.034 653.624,345.353 653.558,349.271 656.810 C 354.228 660.924,355.829 672.000,351.467 672.000 C 345.534 672.000,332.216 657.369,333.976 652.785 C 336.861 645.265,342.681 647.016,340.506 654.750 M327.000 661.074 C 327.000 661.664,318.563 667.312,308.250 673.625 C 274.218 694.457,236.869 734.967,216.398 773.250 C 208.370 788.263,216.267 778.572,229.844 756.750 C 237.799 743.963,254.477 723.660,266.904 711.633 C 289.831 689.445,325.677 663.677,328.998 666.998 C 329.998 667.998,323.545 676.697,314.658 686.328 C 300.616 701.547,271.157 749.157,274.015 752.015 C 274.573 752.573,278.844 745.936,283.506 737.265 C 301.459 703.871,329.526 669.499,335.716 673.325 C 338.539 675.069,338.358 676.744,334.938 680.548 C 326.354 690.093,294.795 757.795,297.615 760.615 C 298.397 761.397,302.645 752.916,307.054 741.769 C 317.325 715.798,336.645 680.285,341.357 678.714 C 344.052 677.816,344.986 685.177,344.948 707.000 C 344.893 738.085,340.734 763.015,330.305 794.785 C 323.149 816.584,323.629 822.775,330.967 803.317 C 341.328 775.842,345.838 753.116,347.632 719.345 C 349.237 689.133,350.133 684.584,354.000 686.990 C 357.665 689.270,358.500 697.880,358.500 733.411 C 358.500 761.470,359.369 773.679,360.935 767.632 C 362.275 762.461,362.950 744.226,362.435 727.108 C 361.409 692.951,364.729 687.998,371.097 714.189 C 377.047 738.658,376.750 789.335,370.501 816.000 C 367.601 828.375,363.023 849.541,360.329 863.035 C 355.290 888.268,351.000 897.991,351.000 884.177 C 351.000 879.874,349.650 875.520,348.000 874.500 C 346.166 873.367,345.000 878.002,345.000 886.423 C 345.000 899.869,336.554 920.894,325.686 934.500 C 321.388 939.881,321.402 939.173,325.823 927.626 C 328.533 920.545,330.102 914.102,329.309 913.309 C 328.515 912.515,325.469 918.309,322.539 926.183 C 313.674 950.006,308.196 950.725,314.949 927.179 C 316.570 921.524,317.445 916.445,316.893 915.893 C 315.384 914.384,283.878 967.620,272.593 990.750 C 267.158 1001.888,261.725 1011.000,260.518 1011.000 C 256.323 1011.000,269.381 978.967,286.160 948.094 C 295.443 931.013,302.509 916.509,301.863 915.863 C 300.793 914.793,283.656 944.620,269.107 972.875 C 261.456 987.732,260.150 985.775,265.610 967.633 C 274.490 938.127,271.004 935.891,256.144 961.563 C 220.282 1023.518,215.443 1031.000,211.239 1031.000 C 208.011 1031.000,207.173 1028.815,208.269 1023.250 C 212.183 1003.369,213.550 993.000,212.255 993.000 C 211.478 993.000,203.218 1014.330,193.900 1040.400 C 182.676 1071.798,176.151 1095.344,174.570 1110.150 L 172.183 1132.500 168.385 1111.129 C 161.591 1072.913,171.699 1015.275,192.390 974.245 C 201.522 956.136,214.670 924.333,211.867 927.134 C 210.968 928.033,201.575 946.258,190.995 967.634 C 170.076 1009.898,147.138 1050.423,147.053 1045.267 C 146.990 1041.430,158.252 1013.334,171.078 985.331 C 176.132 974.296,179.611 964.611,178.809 963.809 C 178.007 963.007,175.387 966.885,172.987 972.426 C 170.586 977.967,164.641 991.275,159.774 1002.000 C 154.908 1012.725,150.011 1024.056,148.893 1027.179 C 145.411 1036.901,143.936 1030.665,147.148 1019.801 C 148.823 1014.136,152.015 995.008,154.242 977.295 C 157.453 951.759,160.578 940.265,169.332 921.795 C 181.603 895.904,179.496 895.428,165.812 921.000 C 160.956 930.075,152.151 946.275,146.245 957.000 C 140.339 967.725,132.452 986.625,128.719 999.000 C 124.986 1011.375,121.503 1019.475,120.979 1017.000 C 120.070 1012.703,128.801 969.459,133.642 954.281 C 135.322 949.016,134.973 947.663,132.352 949.282 C 128.492 951.668,128.424 952.091,138.110 913.500 C 141.009 901.950,142.945 892.037,142.412 891.471 C 141.879 890.905,139.218 894.743,136.500 900.000 C 133.782 905.257,130.873 908.873,130.036 908.036 C 129.199 907.199,130.083 903.583,132.000 900.000 C 133.917 896.417,134.919 892.919,134.225 892.225 C 133.531 891.531,127.861 901.836,121.625 915.125 C 115.389 928.414,109.692 938.692,108.966 937.966 C 108.239 937.239,109.644 929.412,112.087 920.572 C 114.530 911.733,117.400 898.036,118.465 890.135 C 119.530 882.235,123.012 868.186,126.201 858.916 C 132.644 840.189,133.327 836.304,129.000 843.000 C 126.710 846.544,126.082 845.850,126.046 839.734 C 126.021 835.463,132.816 818.030,141.146 800.995 C 149.477 783.960,154.117 771.828,151.458 774.035 C 147.143 777.616,146.849 777.103,148.726 769.274 C 151.715 756.808,155.015 751.142,167.498 737.039 C 173.549 730.203,165.932 736.041,150.572 750.013 C 135.211 763.985,118.596 781.995,113.648 790.035 C 108.701 798.075,103.977 803.977,103.151 803.151 C 100.155 800.155,110.442 781.122,124.066 764.452 C 140.497 744.349,142.653 737.889,127.304 754.750 L 116.607 766.500 122.054 756.415 C 134.013 734.270,150.151 719.979,180.260 704.869 C 196.449 696.746,214.825 688.776,221.097 687.159 C 227.369 685.542,239.250 682.236,247.500 679.812 C 260.133 676.100,261.080 675.366,253.500 675.157 C 238.794 674.751,250.603 669.720,271.305 667.572 C 281.312 666.534,293.550 664.986,298.500 664.131 C 305.409 662.939,302.620 665.536,286.500 675.305 C 251.654 696.422,220.891 731.223,190.637 783.750 C 176.001 809.163,184.448 798.816,202.724 768.946 C 227.603 728.283,266.423 689.241,298.500 672.622 C 321.086 660.920,327.000 658.523,327.000 661.074 M375.750 677.828 C 390.532 688.541,392.749 692.984,386.074 698.524 C 380.939 702.785,372.995 693.954,374.356 685.500 C 375.070 681.069,374.601 680.553,372.563 683.527 C 368.424 689.567,357.000 681.494,357.000 672.528 C 357.000 664.311,357.163 664.357,375.750 677.828 M399.000 675.000 C 399.000 678.105,397.650 681.480,396.000 682.500 C 394.245 683.585,393.000 680.472,393.000 675.000 C 393.000 669.528,394.245 666.415,396.000 667.500 C 397.650 668.520,399.000 671.895,399.000 675.000 M224.455 705.203 C 214.036 713.564,204.332 722.513,202.890 725.089 C 201.449 727.666,209.546 721.997,220.885 712.494 C 246.643 690.903,247.623 690.000,245.299 690.000 C 244.253 690.000,234.873 696.841,224.455 705.203 M292.693 770.121 C 291.065 774.396,291.409 774.741,294.372 771.800 C 296.423 769.765,297.344 767.344,296.421 766.421 C 295.497 765.497,293.819 767.162,292.693 770.121 M307.714 790.714 C 306.611 795.111,306.287 799.287,306.994 799.994 C 307.701 800.701,309.182 797.682,310.286 793.286 C 311.389 788.889,311.713 784.713,311.006 784.006 C 310.299 783.299,308.818 786.318,307.714 790.714 M297.529 822.529 C 293.891 832.641,291.428 841.428,292.055 842.055 C 292.682 842.682,296.257 835.007,300.000 825.000 C 303.743 814.993,306.206 806.206,305.475 805.475 C 304.743 804.743,301.168 812.418,297.529 822.529 M175.377 810.200 C 174.289 811.959,174.043 814.043,174.829 814.829 C 175.615 815.615,177.058 814.176,178.035 811.629 C 180.064 806.343,178.335 805.413,175.377 810.200 M139.605 817.760 C 136.809 822.028,135.204 826.204,136.039 827.039 C 136.874 827.874,139.717 824.382,142.356 819.279 C 148.189 807.998,146.583 807.111,139.605 817.760 M281.218 863.994 C 276.945 873.897,274.097 882.000,274.890 882.000 C 276.894 882.000,291.516 848.516,290.121 847.121 C 289.498 846.498,285.491 854.090,281.218 863.994 M267.487 892.628 C 262.461 903.660,263.420 906.014,268.855 895.985 C 271.393 891.301,272.908 886.908,272.222 886.222 C 271.536 885.536,269.405 888.419,267.487 892.628 M142.377 924.200 C 141.289 925.959,141.043 928.043,141.829 928.829 C 142.615 929.615,144.058 928.176,145.035 925.629 C 147.064 920.343,145.335 919.413,142.377 924.200 M225.407 988.622 C 218.583 1004.467,213.079 1020.371,213.176 1023.965 C 213.273 1027.559,216.471 1021.725,220.283 1011.000 C 224.095 1000.275,230.125 984.896,233.682 976.825 C 237.240 968.754,239.625 961.625,238.983 960.983 C 238.340 960.340,232.231 972.778,225.407 988.622 " stroke="none" fill="black" fill-rule="evenodd"/></svg>